<svg xmlns="http://www.w3.org/2000/svg" height="800" width="1200" viewBox="-117.56115 -51.72275 1018.8633 310.3365"><path d="M2.906 1.097c2.12-.94 4.47-1.05 6.75-1.06 17.34.05 34.69.01 52.04.02 2.62.19 6.18.24 7.42 3.05 1.38 2.6 1.01 5.61 1.05 8.44-.05 18.94 0 37.88.18 56.82 23.3-.21 46.61-.03 69.91-.08-.02-19.92.02-39.84-.02-59.75.02-2.48.31-5.4 2.37-7.07 2.09-1.3 4.69-1.38 7.09-1.43 17.34.04 34.69.02 52.04.01 2.71.08 6 .27 7.68 2.75 1.15 2.04.95 4.52 1.07 6.78-.01 62.66-.01 125.31 0 187.97-.03 1.98-.11 4.01-.77 5.9-1.6 2.72-5.16 3.3-8.04 3.41-17.33.01-34.67-.02-52 .01-2.86.17-5.55-.9-8.07-2.12-.64-2.03-1.46-4.08-1.37-6.24.06-19.94-.06-39.88.07-59.82-23.35-.12-46.71-.12-70.05-.04-.25 20.31-.01 40.63-.12 60.94 0 1.84-.87 3.51-1.45 5.22-2.26 1.02-4.59 2.16-7.14 2.05-17.65 0-35.3 0-52.95-.01-2.57.11-4.94-.99-7.2-2.07-.72-2.02-1.52-4.08-1.38-6.27.04-30.14.01-60.29.02-90.43 14.33-11.1 28.96-21.79 43.35-32.8 2.81-2.27 6.05-4.04 8.43-6.82-17.26-.14-34.53-.02-51.79-.06.02-20.27 0-40.54.01-60.8.03-2.4.58-5.26 2.87-6.5zm309.23.14c3.09-.84 6.31-1.17 9.51-1.19 51.99.03 103.99.01 155.98.02 5.29.26 10.75-.7 15.91.8 3.19 1.02 3.57 4.77 3.53 7.62-.1 15.36.07 30.73-.09 46.08.41 5.13-5.1 7.16-9.31 7.16-36.33.04-72.66.01-108.98.02-3.24.02-6.71.4-9.27 2.58-5 3.74-6.04 10.4-6.36 16.23-.01 15.37-.05 30.74.01 46.11.38 4.85 1.1 10.13 4.4 13.95 2.69 3.2 7 4.54 11.06 4.57 36.04-.04 72.09.02 108.13-.03 2.67-.03 5.41.39 7.8 1.67 2.32 1.36 2.5 4.38 2.59 6.79-.04 15.32.03 30.65-.03 45.98-.24 2.03-.32 4.88-2.56 5.76-3.6 2.06-7.87 1.42-11.83 1.5-54.01 0-108.02-.01-162.03 0-6.88-.25-13.86-2.61-18.72-7.65-8.89-8.67-11.48-21.66-11.64-33.64.02-41.66 0-83.32.01-124.99.33-8.72 1.45-17.72 5.9-25.4 3.29-6.47 9.07-11.68 15.99-13.94zm278.54 4.28c4.77-3.87 10.92-5.54 17-5.46 55.67 0 111.35.02 167.03-.01 2.34.07 4.87.25 6.89 1.58 2.05 2.44 2.16 5.84 2.14 8.87-.28 14.98.33 29.99-.34 44.95-.18 4.92-5.65 6.29-9.66 6.3-36.7.03-73.4-.08-110.09.06-5.69-.27-10.71 3.93-12.41 9.19-1.4 4.7-1.83 9.64-1.77 14.53.05 13.01-.04 26.03.03 39.04.4 5.46.74 11.46 4.36 15.89 2.78 3.51 7.5 4.8 11.82 4.73 34.67-.04 69.34.01 104.01-.03 3.88-.02 8.08-.26 11.56 1.79 1.87 1.61 2.31 4.3 2.33 6.65.18 12.32.07 24.64.1 36.97-.09 4.82.72 9.92-1.62 14.38-2.34 1.07-4.81 2.07-7.43 1.92-53.35-.03-106.7 0-160.06-.02-4.69-.03-9.48.37-14.05-.96-9.71-2.04-17.01-10.28-20.14-19.39-3.8-9.14-3.49-19.24-3.45-28.95-.01-32.68 0-65.37 0-98.05.2-10.97-.76-22.05 1.37-32.9 2.13-7.94 5.63-16 12.38-21.08z" fill="#18578c"/></svg>